<svg id="레이어_1" data-name="레이어 1" xmlns="http://www.w3.org/2000/svg" xmlns:xlink="http://www.w3.org/1999/xlink" viewBox="0 0 189.64 251.47"><defs>
<style>
cls-1{fill:none;}
.cls-2{clip-path:url(#clip-path);}
.cls-3{fill:#ffffff;}
.cls-4{fill:#ffffff;}
</style>
<clipPath id="clip-path" transform="translate(-55.18 -24.27)"><rect class="cls-1" width="300" height="300"/></clipPath></defs><title>logo</title><g class="cls-2"><path class="cls-3" d="M224.53,214.67h-11.7v-15.6a3.65,3.65,0,0,0-3.65-3.65h-40V183.73h40a15.36,15.36,0,0,1,15.35,15.34Z" transform="translate(-55.18 -24.27)"/><path class="cls-3" d="M76.36,229.19A21.18,21.18,0,1,1,97.53,208a21.2,21.2,0,0,1-21.17,21.17m0-30.65A9.48,9.48,0,1,0,85.83,208a9.49,9.49,0,0,0-9.47-9.48" transform="translate(-55.18 -24.27)"/><path class="cls-4" d="M123.27,275.73h-11.7v-15a11.18,11.18,0,0,0-11.17-11.17H69.77v-11.7H100.4a22.9,22.9,0,0,1,22.87,22.87Z" transform="translate(-55.18 -24.27)"/><path class="cls-4" d="M145.58,207.74V196H118.69V184.12H107V208.7a22.89,22.89,0,0,0,22.86,22.87h15.72v-11.7H129.86a11.18,11.18,0,0,1-11.17-11.17v-1Z" transform="translate(-55.18 -24.27)"/><path class="cls-4" d="M244.82,231.57v-11.7H162.76v11.7h35v14.06H174v11.7h36.48a11.18,11.18,0,0,1,11.17,11.16v7.24h11.7v-7.24a22.89,22.89,0,0,0-22.87-22.86h-1V231.57Z" transform="translate(-55.18 -24.27)"/><rect class="cls-3" x="132.01" y="165.31" width="11.7" height="25.1"/><path class="cls-3" d="M152.05,24.27A65.75,65.75,0,1,0,217.81,90a65.75,65.75,0,0,0-65.76-65.75m25.35,72-3.32,3.32-5.33-5.33,3.32-3.32A14.79,14.79,0,1,0,151.15,70l-6.85,6.85,23.58,23.59a3.76,3.76,0,0,1,0,5.32l-9.59,9.6a22.33,22.33,0,0,1-31.58-31.58L129.45,81l5.33,5.33L132,89.11A14.79,14.79,0,0,0,153,110l6.85-6.85L136.23,79.59a3.76,3.76,0,0,1,0-5.32l9.59-9.6A22.33,22.33,0,0,1,177.4,96.25" transform="translate(-55.18 -24.27)"/></g></svg>